<svg width="65" height="66" fill="none" xmlns="http://www.w3.org/2000/svg"><g clip-path="url(#clip0_52_877)"><path d="M32.5.726C14.579.726 0 15.305 0 33.226c0 15.54 10.698 29.195 25.437 32.467a1.36 1.36 0 001.646-1.322v-8.125a1.354 1.354 0 00-1.354-1.354h-2.708c-3.21 0-6.075-3.96-8.38-7.139-.223-.31-.448-.62-.674-.929.948.444 1.869.907 2.635 1.292 2.22 1.113 4.323 2.167 6.04 2.657.073.027.165.07.27.116.661.298 1.888.85 2.99.136 1.181-.764 1.181-2.375 1.181-2.904v-.945a1.353 1.353 0 00-.985-1.3c-7.51-2.131-12.556-7.76-12.556-14.005 0-3.25 1.335-6.35 3.859-8.97a1.354 1.354 0 00.255-1.51c-1.008-2.173-.794-5.128.4-6.902 1.582.615 3.63 1.907 4.965 3.489a1.355 1.355 0 001.5.4 23.495 23.495 0 0115.958 0 1.346 1.346 0 001.5-.4c1.333-1.582 3.383-2.871 4.965-3.489 1.194 1.774 1.408 4.73.4 6.901a1.354 1.354 0 00.255 1.511c2.524 2.62 3.86 5.72 3.86 8.97 0 6.56-5.607 12.432-13.632 14.284a1.353 1.353 0 00-.893 1.95c.671 1.273.983 2.998.983 5.433v10.833a1.353 1.353 0 001.646 1.322C54.303 62.421 65 48.766 65 33.226 65 15.305 50.421.726 32.5.726z" fill="#fff"/><path d="M26.098 46.548a1.354 1.354 0 01.986 1.303v-.677a1.354 1.354 0 00-.986-1.3c-7.37-2.091-12.34-7.554-12.52-13.661-.003.111-.036.22-.036.333 0 6.248 5.046 11.876 12.556 14.002zm11.73.282c8.024-1.853 13.63-7.724 13.63-14.284 0-.116-.032-.227-.035-.344-.19 6.422-5.709 12.134-13.595 13.948a1.354 1.354 0 00-.927.758 1.328 1.328 0 00-.046.897c.02-.073.014-.15.046-.217a1.354 1.354 0 01.927-.758z" fill="#fff" fill-opacity=".125"/><path d="M32.5.73C14.579.73 0 15.308 0 33.23c0 .121.014.243.016.365C.184 15.82 14.685 1.407 32.5 1.407S64.816 15.82 64.984 33.595c0-.122.016-.244.016-.365C65 15.309 50.421.73 32.5.73z" fill="#fff" fill-opacity=".125"/><path d="M25.437 65.699a1.36 1.36 0 001.646-1.322V63.7a1.353 1.353 0 01-1.646 1.322C10.812 61.777.184 48.308.017 32.92c0 .105-.017.206-.017.311C0 48.771 10.698 62.427 25.437 65.7zm14.126-.677a1.357 1.357 0 01-1.646-1.322v.677a1.352 1.352 0 001.646 1.322C54.303 62.427 65 48.772 65 33.23c0-.105-.013-.206-.016-.311-.168 15.389-10.798 28.857-25.42 32.102zm7.38-51.199c-1.581.618-3.629 1.91-4.964 3.491a1.346 1.346 0 01-1.5.398 23.495 23.495 0 00-15.958 0 1.354 1.354 0 01-1.5-.398c-1.333-1.581-3.383-2.873-4.965-3.49-.682 1.015-1.002 2.41-.999 3.829.095-1.176.428-2.302 1.002-3.153 1.58.618 3.63 1.91 4.962 3.491a1.354 1.354 0 001.5.399 23.495 23.495 0 0115.958 0 1.34 1.34 0 001.5-.399c1.333-1.581 3.383-2.873 4.965-3.49.571.85.904 1.976.999 3.152 0-1.417-.314-2.817-1-3.83z" fill="#010101" fill-opacity=".063"/><path d="M32.5.726C14.579.726 0 15.305 0 33.226c0 15.54 10.698 29.195 25.437 32.467a1.36 1.36 0 001.646-1.322v-8.125a1.354 1.354 0 00-1.354-1.354h-2.708c-3.21 0-6.075-3.96-8.38-7.139-.223-.31-.448-.62-.674-.929.948.444 1.869.907 2.635 1.292 2.22 1.113 4.323 2.167 6.04 2.657.073.027.165.07.27.116.661.298 1.888.85 2.99.136 1.181-.764 1.181-2.375 1.181-2.904v-.945a1.353 1.353 0 00-.985-1.3c-7.51-2.131-12.556-7.76-12.556-14.005 0-3.25 1.335-6.35 3.859-8.97a1.354 1.354 0 00.255-1.51c-1.008-2.173-.794-5.128.4-6.902 1.582.615 3.63 1.907 4.965 3.489a1.355 1.355 0 001.5.4 23.495 23.495 0 0115.958 0 1.346 1.346 0 001.5-.4c1.333-1.582 3.383-2.871 4.965-3.489 1.194 1.774 1.408 4.73.4 6.901a1.354 1.354 0 00.255 1.511c2.524 2.62 3.86 5.72 3.86 8.97 0 6.56-5.607 12.432-13.632 14.284a1.353 1.353 0 00-.893 1.95c.671 1.273.983 2.998.983 5.433v10.833a1.353 1.353 0 001.646 1.322C54.303 62.421 65 48.766 65 33.226 65 15.305 50.421.726 32.5.726z" fill="url(#paint0_linear_52_877)"/></g><defs><linearGradient id="paint0_linear_52_877" x1="2.909" y1="19.784" x2="61.926" y2="47.303" gradientUnits="userSpaceOnUse"><stop stop-color="#fff" stop-opacity=".2"/><stop offset="1" stop-color="#fff" stop-opacity="0"/></linearGradient><clipPath id="clip0_52_877"><path fill="#fff" transform="translate(0 .722)" d="M0 0h65v65H0z"/></clipPath></defs></svg>