<svg width="65" height="66" fill="none" xmlns="http://www.w3.org/2000/svg"><g clip-path="url(#clip0_52_844)"><path d="M49.739 24.114L28.966 2.904A7.4 7.4 0 0023.698.723 7.456 7.456 0 0016.25 8.17a7.4 7.4 0 002.194 5.275l5.294 5.173c-9.297 3.589-15.613 12.63-15.613 22.729 0 13.441 10.933 24.375 24.375 24.375 13.441 0 24.375-10.934 24.375-24.375a24.215 24.215 0 00-7.136-17.233z" fill="#F47920"/><path d="M47.415 38.095L34.813 25.491a5.195 5.195 0 00-7.334 0 5.192 5.192 0 000 7.334l3.106 3.104h-8.918a5.422 5.422 0 00-5.417 5.416 5.422 5.422 0 005.417 5.417h8.918l-3.106 3.104a5.192 5.192 0 000 7.334 5.178 5.178 0 003.667 1.517 5.178 5.178 0 003.667-1.517l12.602-12.605a4.601 4.601 0 000-6.5z" fill="#fff"/><path opacity=".2" d="M23.698 1.399c1.988 0 3.86.774 5.265 2.183l20.776 21.206a24.198 24.198 0 017.12 16.89c0-.11.016-.217.016-.331a24.215 24.215 0 00-7.136-17.233L28.966 2.904A7.4 7.4 0 0023.698.723 7.456 7.456 0 0016.25 8.17c0 .116.027.227.032.344a7.44 7.44 0 017.416-7.115z" fill="#fff"/><path opacity=".1" d="M32.5 65.042c-13.303 0-24.131-10.714-24.353-23.966 0 .092-.022.179-.022.268 0 13.442 10.933 24.375 24.375 24.375 13.441 0 24.375-10.933 24.375-24.375 0-.116-.016-.23-.016-.346-.182 13.29-11.029 24.044-24.359 24.044z" fill="#010101"/><path opacity=".2" d="M21.45 36.607h9.828l-.69-.677h-8.92c-2.32 0-4.292 1.479-5.059 3.537a5.525 5.525 0 014.84-2.86zm5.93-10.438c2.062-2.02 5.417-2.02 7.48 0l12.857 12.605c.315.306.564.644.77 1.004a4.564 4.564 0 00-1.07-1.681L34.815 25.491a5.192 5.192 0 00-7.334 0 5.138 5.138 0 00-1.455 3.033 5.126 5.126 0 011.354-2.356z" fill="#fff"/><path opacity=".1" d="M21.45 46.084h9.828l-.69.677h-8.92a5.411 5.411 0 01-5.059-3.537 5.525 5.525 0 004.84 2.86zm5.93 10.438c2.062 2.02 5.417 2.02 7.48 0l12.857-12.605c.315-.306.564-.644.77-1.005a4.54 4.54 0 01-1.07 1.682L34.815 57.2a5.192 5.192 0 01-7.334 0 5.132 5.132 0 01-1.455-3.033 5.13 5.13 0 001.354 2.356z" fill="#010101"/><path d="M47.417 38.099a4.601 4.601 0 010 6.5L34.815 57.204a5.178 5.178 0 01-3.667 1.516 5.178 5.178 0 01-3.667-1.517l8.28 8.277a24.402 24.402 0 0020.455-18.582l-8.799-8.8zm-16.83 8.667H21.67a5.374 5.374 0 01-3.705-1.49l8.025 8.027a5.146 5.146 0 011.492-3.434l3.106-3.103z" fill="url(#paint0_linear_52_844)"/><path d="M49.739 24.114L28.966 2.904A7.4 7.4 0 0023.698.723 7.456 7.456 0 0016.25 8.17a7.4 7.4 0 002.194 5.275l5.294 5.173c-9.297 3.589-15.613 12.63-15.613 22.729 0 13.441 10.933 24.375 24.375 24.375 13.441 0 24.375-10.934 24.375-24.375a24.215 24.215 0 00-7.136-17.233z" fill="url(#paint1_linear_52_844)"/></g><defs><linearGradient id="paint0_linear_52_844" x1="26.52" y1="36.72" x2="49.037" y2="59.237" gradientUnits="userSpaceOnUse"><stop stop-color="#010101" stop-opacity=".1"/><stop offset="1" stop-color="#010101" stop-opacity="0"/></linearGradient><linearGradient id="paint1_linear_52_844" x1="7.805" y1="24.631" x2="56.583" y2="47.376" gradientUnits="userSpaceOnUse"><stop stop-color="#fff" stop-opacity=".2"/><stop offset="1" stop-color="#fff" stop-opacity="0"/></linearGradient><clipPath id="clip0_52_844"><path fill="#fff" transform="translate(0 .722)" d="M0 0h65v65H0z"/></clipPath></defs></svg>