<svg width="65" height="66" fill="none" xmlns="http://www.w3.org/2000/svg"><path d="M19.5 20.78h-3.59l9.786 27.663 5.478-15.656-4.247-12.007h-3.788v-2.636h16.772v2.636h-3.928l9.786 27.663 3.518-10.053c4.614-12.879-3.782-16.89-3.782-19.765a5.204 5.204 0 015.658-5.182 27.098 27.098 0 00-18.662-7.417c-9.442 0-17.758 4.813-22.634 12.118H19.5v2.636zM5.307 33.22c0 10.411 5.851 19.454 14.444 24.024L7.48 22.554A27.105 27.105 0 005.307 33.22zm50.859-13.397c.389 2.29.271 4.865-.326 7.449h.108l-.41 1.175a25.363 25.363 0 01-.9 2.569L45.281 57.23c8.575-4.576 14.412-13.609 14.412-24.007 0-4.872-1.283-9.444-3.527-13.4z" fill="#00769D"/><path d="M24.113 59.094c2.642.856 5.46 1.32 8.387 1.32 2.792 0 5.485-.422 8.02-1.203l-7.954-22.485-8.453 22.368z" fill="#00769D"/><path d="M55.481 10.24C49.343 4.103 41.181.723 32.5.723c-8.681 0-16.843 3.38-22.981 9.519C3.381 16.379 0 24.54 0 33.22c0 8.682 3.38 16.843 9.519 22.982 6.138 6.138 14.3 9.519 22.981 9.519 8.681 0 16.843-3.38 22.981-9.52 6.139-6.138 9.52-14.3 9.52-22.98C65 24.54 61.618 16.379 55.48 10.24zM32.5 63.43c-16.656 0-30.207-13.55-30.207-30.207S15.843 3.014 32.5 3.014c16.656 0 30.207 13.551 30.207 30.208 0 16.656-13.55 30.207-30.207 30.207z" fill="#00769D"/></svg>